<?xml version="1.0" encoding="UTF-8" standalone="no"?>
<svg width="664px" height="584px" viewBox="0 0 664 584" version="1.1" xmlns="http://www.w3.org/2000/svg" xmlns:xlink="http://www.w3.org/1999/xlink">
    <!-- Generator: Sketch 3.8.3 (29802) - http://www.bohemiancoding.com/sketch -->
    <title>social-icons</title>
    <desc>Created with Sketch.</desc>
    <defs>
        <circle id="path-1" cx="22" cy="22" r="22"></circle>
        <mask id="mask-2" maskContentUnits="userSpaceOnUse" maskUnits="objectBoundingBox" x="0" y="0" width="44" height="44" fill="white">
            <use xlink:href="#path-1"></use>
        </mask>
        <circle id="path-3" cx="22" cy="22" r="22"></circle>
        <mask id="mask-4" maskContentUnits="userSpaceOnUse" maskUnits="objectBoundingBox" x="0" y="0" width="44" height="44" fill="white">
            <use xlink:href="#path-3"></use>
        </mask>
        <circle id="path-5" cx="22" cy="22" r="22"></circle>
        <mask id="mask-6" maskContentUnits="userSpaceOnUse" maskUnits="objectBoundingBox" x="0" y="0" width="44" height="44" fill="white">
            <use xlink:href="#path-5"></use>
        </mask>
        <circle id="path-7" cx="22" cy="22" r="22"></circle>
        <mask id="mask-8" maskContentUnits="userSpaceOnUse" maskUnits="objectBoundingBox" x="0" y="0" width="44" height="44" fill="white">
            <use xlink:href="#path-7"></use>
        </mask>
        <circle id="path-9" cx="22" cy="22" r="22"></circle>
        <mask id="mask-10" maskContentUnits="userSpaceOnUse" maskUnits="objectBoundingBox" x="0" y="0" width="44" height="44" fill="white">
            <use xlink:href="#path-9"></use>
        </mask>
        <circle id="path-11" cx="22" cy="22" r="22"></circle>
        <mask id="mask-12" maskContentUnits="userSpaceOnUse" maskUnits="objectBoundingBox" x="0" y="0" width="44" height="44" fill="white">
            <use xlink:href="#path-11"></use>
        </mask>
        <circle id="path-13" cx="22" cy="22" r="22"></circle>
        <mask id="mask-14" maskContentUnits="userSpaceOnUse" maskUnits="objectBoundingBox" x="0" y="0" width="44" height="44" fill="white">
            <use xlink:href="#path-13"></use>
        </mask>
        <circle id="path-15" cx="22" cy="22" r="22"></circle>
        <mask id="mask-16" maskContentUnits="userSpaceOnUse" maskUnits="objectBoundingBox" x="0" y="0" width="44" height="44" fill="white">
            <use xlink:href="#path-15"></use>
        </mask>
        <circle id="path-17" cx="22" cy="22" r="22"></circle>
        <mask id="mask-18" maskContentUnits="userSpaceOnUse" maskUnits="objectBoundingBox" x="0" y="0" width="44" height="44" fill="white">
            <use xlink:href="#path-17"></use>
        </mask>
        <circle id="path-19" cx="22" cy="22" r="22"></circle>
        <mask id="mask-20" maskContentUnits="userSpaceOnUse" maskUnits="objectBoundingBox" x="0" y="0" width="44" height="44" fill="white">
            <use xlink:href="#path-19"></use>
        </mask>
        <circle id="path-21" cx="22" cy="22" r="22"></circle>
        <mask id="mask-22" maskContentUnits="userSpaceOnUse" maskUnits="objectBoundingBox" x="0" y="0" width="44" height="44" fill="white">
            <use xlink:href="#path-21"></use>
        </mask>
        <circle id="path-23" cx="22" cy="22" r="22"></circle>
        <mask id="mask-24" maskContentUnits="userSpaceOnUse" maskUnits="objectBoundingBox" x="0" y="0" width="44" height="44" fill="white">
            <use xlink:href="#path-23"></use>
        </mask>
        <circle id="path-25" cx="22" cy="22" r="22"></circle>
        <mask id="mask-26" maskContentUnits="userSpaceOnUse" maskUnits="objectBoundingBox" x="0" y="0" width="44" height="44" fill="white">
            <use xlink:href="#path-25"></use>
        </mask>
        <circle id="path-27" cx="22" cy="22" r="22"></circle>
        <mask id="mask-28" maskContentUnits="userSpaceOnUse" maskUnits="objectBoundingBox" x="0" y="0" width="44" height="44" fill="white">
            <use xlink:href="#path-27"></use>
        </mask>
        <circle id="path-29" cx="22" cy="22" r="22"></circle>
        <mask id="mask-30" maskContentUnits="userSpaceOnUse" maskUnits="objectBoundingBox" x="0" y="0" width="44" height="44" fill="white">
            <use xlink:href="#path-29"></use>
        </mask>
        <circle id="path-31" cx="22" cy="22" r="22"></circle>
        <mask id="mask-32" maskContentUnits="userSpaceOnUse" maskUnits="objectBoundingBox" x="0" y="0" width="44" height="44" fill="white">
            <use xlink:href="#path-31"></use>
        </mask>
        <circle id="path-33" cx="22" cy="22" r="22"></circle>
        <mask id="mask-34" maskContentUnits="userSpaceOnUse" maskUnits="objectBoundingBox" x="0" y="0" width="44" height="44" fill="white">
            <use xlink:href="#path-33"></use>
        </mask>
    </defs>
    <g id="Social-Icons" stroke="none" stroke-width="1" fill="none" fill-rule="evenodd">
        <g id="social-icons">
            <text id="source" font-family="Helvetica" font-size="13" font-weight="normal" fill="#999999">
                <tspan x="223.031494" y="557">https://github.com/konsav/social-icons</tspan>
            </text>
            <g id="facebook" transform="translate(40.000000, 40.000000)">
                <rect id="Rectangle" x="0" y="0" width="44" height="44"></rect>
                <use id="Oval" stroke="#000000" mask="url(#mask-2)" stroke-width="4" xlink:href="#path-1"></use>
                <path d="M23.3147057,35 L18.4372418,35 L18.4372418,23.4985483 L16,23.4985483 L16,19.535534 L18.4372418,19.535534 L18.4372418,17.1562737 C18.4372418,13.9234411 19.8127074,12 23.7230238,12 L26.9776468,12 L26.9776468,15.964466 L24.9435074,15.964466 C23.4212558,15.964466 23.3206665,16.5182719 23.3206665,17.5518493 L23.3139606,19.535534 L27,19.535534 L26.5685836,23.4985483 L23.3139606,23.4985483 L23.3139606,35 L23.3147057,35 Z" id="Shape" fill="#000000"></path>
            </g>
            <g id="twitter" transform="translate(100.000000, 40.000000)">
                <rect id="Rectangle" x="0" y="0" width="44" height="44"></rect>
                <use id="Oval" stroke="#000000" mask="url(#mask-4)" stroke-width="4" xlink:href="#path-3"></use>
                <path d="M30.526149,16.8457316 C31.4160944,16.2841254 32.0989611,15.3936155 32.41944,14.3328037 C31.5861948,14.8541095 30.6654341,15.2311137 29.6830428,15.4352159 C28.899102,14.5512061 27.7786582,14 26.5386512,14 C24.1597112,14 22.231907,16.0345226 22.231907,18.5435505 C22.231907,18.8997544 22.2676528,19.2468583 22.3416094,19.578362 C18.762106,19.3885599 15.5881317,17.5815398 13.4618771,14.8307092 C13.0908611,15.5041167 12.8788519,16.2841254 12.8788519,17.1161346 C12.8788519,18.6917521 13.6393731,20.0827676 14.7955626,20.8991767 C14.0892763,20.8757764 13.4248987,20.6690741 12.8431062,20.3310703 L12.8431062,20.386971 C12.8431062,22.5891954 14.3271703,24.4261158 16.3005811,24.8421205 C15.9381933,24.9487217 15.558549,25.0020222 15.1641134,25.0020222 C14.8867758,25.0020222 14.6156013,24.9747219 14.3542877,24.9214213 C14.9015672,26.7258414 16.4928685,28.041456 18.3787639,28.0765564 C16.9033281,29.29597 15.0457827,30.021378 13.0279979,30.021378 C12.6804015,30.021378 12.3365029,30.0018778 12,29.9589773 C13.9068498,31.2472916 16.1711569,32 18.6043317,32 C26.5300229,32 30.8614193,25.0761231 30.8614193,19.0713563 C30.8614193,18.8737542 30.858954,18.677452 30.8503258,18.4837498 C31.6921993,17.8428427 32.4243705,17.0420338 33,16.1307237 C32.2271527,16.4921277 31.3963726,16.7365304 30.526149,16.8457316 Z" id="Shape" fill="#000000"></path>
            </g>
            <g id="googleplus" transform="translate(160.000000, 40.000000)">
                <rect id="Rectangle" x="0" y="0" width="44" height="44"></rect>
                <use id="Oval" stroke="#000000" mask="url(#mask-6)" stroke-width="4" xlink:href="#path-5"></use>
                <path d="M18.4851046,20.3168153 L18.4851046,23.6831847 C18.4851046,23.6831847 21.7448888,23.6785506 23.072238,23.6785506 C22.3532848,25.861229 21.2357958,27.0495541 18.4851046,27.0495541 C15.7013124,27.0495541 13.5285642,24.7887574 13.5285642,21.999669 C13.5285642,19.2112426 15.7013124,16.9504459 18.4851046,16.9504459 C19.956774,16.9504459 20.9074341,17.4688072 21.7793138,18.1910705 C22.4770824,17.4919779 22.4188247,17.3920129 24.1943612,15.7118073 C22.6869426,14.3374547 20.6836715,13.5 18.4851046,13.5 C13.7993302,13.5 10,17.3052884 10,21.999669 C10,26.6940496 13.7993302,30.5 18.4851046,30.5 C25.4892714,30.5 27.2012539,24.3902216 26.6339032,20.3168153 L18.4851046,20.3168153 Z M33.774446,20.4849683 L33.774446,17.5396433 L31.67452,17.5396433 L31.67452,20.4849683 L28.6497527,20.4849683 L28.6497527,22.5888664 L31.67452,22.5888664 L31.67452,25.6189299 L33.774446,25.6189299 L33.774446,22.5888664 L36.7144749,22.5888664 L36.7144749,20.4849683 L33.774446,20.4849683 Z" id="Shape" fill="#000000"></path>
            </g>
            <g id="instagram" transform="translate(220.000000, 40.000000)">
                <rect id="Rectangle" x="0" y="0" width="44" height="44"></rect>
                <use id="Oval" stroke="#000000" mask="url(#mask-8)" stroke-width="4" xlink:href="#path-7"></use>
                <path d="M21.9999782,12.9820221 C24.9371191,12.9820221 25.2849947,12.9932002 26.4449003,13.0461217 C27.5173894,13.0950697 28.0998311,13.2742691 28.4874851,13.4248682 C29.0008931,13.6244152 29.3673699,13.8628238 29.752273,14.247727 C30.1371762,14.6326301 30.3755848,14.9991069 30.5750882,15.5125149 C30.7257309,15.9001689 30.9049303,16.4826106 30.9538783,17.5550561 C31.0067998,18.7150053 31.0179779,19.0628809 31.0179779,22.0000218 C31.0179779,24.9371627 31.0067998,25.2850383 30.9538783,26.4449439 C30.9049303,27.5174331 30.7257309,28.0998748 30.5750882,28.4875288 C30.3755848,29.0009368 30.1371762,29.3674135 29.752273,29.7523167 C29.3673699,30.1372199 29.0008931,30.3756284 28.4874851,30.5751318 C28.0998311,30.7257746 27.5173894,30.904974 26.4449003,30.953922 C25.2851693,31.0068434 24.9372937,31.0180216 21.9999782,31.0180216 C19.0626626,31.0180216 18.714787,31.0068434 17.5550561,30.953922 C16.4825669,30.904974 15.9001252,30.7257746 15.5125149,30.5751318 C14.9990632,30.3756284 14.6325865,30.1372199 14.2476833,29.7523167 C13.8627801,29.3674135 13.6243716,29.0009368 13.4248682,28.4875288 C13.2742254,28.0998748 13.095026,27.5174331 13.046078,26.4449876 C12.9931566,25.2850383 12.9819784,24.9371627 12.9819784,22.0000218 C12.9819784,19.0628809 12.9931566,18.7150053 13.046078,17.5550997 C13.095026,16.4826106 13.2742254,15.9001689 13.4248682,15.5125149 C13.6243716,14.9991069 13.8627801,14.6326301 14.2476833,14.247727 C14.6325865,13.8628238 14.9990632,13.6244152 15.5125149,13.4248682 C15.9001252,13.2742691 16.4825669,13.0950697 17.5550124,13.0461217 C18.7149617,12.9932002 19.0628373,12.9820221 21.9999782,12.9820221 M21.9999782,11 C19.0125357,11 18.637981,11.0126627 17.4647141,11.0661955 C16.2938487,11.1196409 15.4942631,11.3055647 14.7945384,11.5775076 C14.0711911,11.8586201 13.4577476,12.2347467 12.8462253,12.846269 C12.234703,13.4577912 11.8585764,14.0712348 11.5774639,14.794582 C11.305521,15.4943067 11.1195973,16.2938923 11.0661518,17.4647577 C11.0126191,18.637981 11,19.0125794 11,22.0000218 C11,24.9874643 11.0126191,25.3620626 11.0661518,26.5352859 C11.1195973,27.7061513 11.305521,28.5057369 11.5774639,29.2054616 C11.8585764,29.9287652 12.234703,30.5422524 12.8462253,31.1537747 C13.4577476,31.765297 14.0711911,32.1414236 14.7945384,32.4225361 C15.4942631,32.694479 16.2938487,32.8804027 17.4647141,32.9338482 C18.637981,32.9873809 19.0125357,33 21.9999782,33 C24.9874206,33 25.362019,32.9873809 26.5352423,32.9338482 C27.7061077,32.8804027 28.5056933,32.694479 29.205418,32.4225361 C29.9287652,32.1414236 30.5422088,31.765297 31.153731,31.1537747 C31.7652533,30.5422524 32.1413799,29.9288089 32.4224924,29.2054616 C32.6944353,28.5057369 32.8803591,27.7061513 32.9338045,26.5352859 C32.9873373,25.3620626 33,24.9874643 33,22.0000218 C33,19.0125794 32.9873373,18.637981 32.9338045,17.4647577 C32.8803591,16.2938923 32.6944353,15.4943067 32.4224924,14.794582 C32.1413799,14.0712348 31.7652533,13.4577912 31.153731,12.846269 C30.5422088,12.2347467 29.9287652,11.8586201 29.205418,11.5775076 C28.5056933,11.3055647 27.7061077,11.1196409 26.5352423,11.0661955 C25.362019,11.0126627 24.9874206,11 21.9999782,11 Z M22.0218254,16.3690476 C18.8998963,16.3690476 16.3690476,18.8998963 16.3690476,22.0218254 C16.3690476,25.1437545 18.8998963,27.6746032 22.0218254,27.6746032 C25.1437545,27.6746032 27.6746032,25.1437545 27.6746032,22.0218254 C27.6746032,18.8998963 25.1437545,16.3690476 22.0218254,16.3690476 Z M22.0218254,25.6911823 C19.99532,25.6911823 18.3524685,24.0483308 18.3524685,22.0218254 C18.3524685,19.99532 19.99532,18.3524685 22.0218254,18.3524685 C24.0483308,18.3524685 25.6911823,19.99532 25.6911823,22.0218254 C25.6911823,24.0483308 24.0483308,25.6911823 22.0218254,25.6911823 Z M29.1587302,16.1071212 C29.1587302,16.830358 28.5724648,17.4166667 27.849228,17.4166667 C27.1259912,17.4166667 26.5396825,16.830358 26.5396825,16.1071212 C26.5396825,15.3838844 27.1259912,14.797619 27.849228,14.797619 C28.5724648,14.797619 29.1587302,15.3838844 29.1587302,16.1071212 Z" id="Shape" fill="#000000"></path>
            </g>
            <g id="linkedin" transform="translate(400.000000, 40.000000)">
                <rect id="Rectangle" x="0" y="0" width="44" height="44"></rect>
                <use id="Oval" stroke="#000000" mask="url(#mask-10)" stroke-width="4" xlink:href="#path-9"></use>
                <path d="M12.5044685,18.4131131 L16.4026341,18.4131131 L16.4026341,31.9987194 L12.5044685,31.9987194 L12.5044685,18.4131131 Z M14.3541863,16.7137918 L14.3259643,16.7137918 C12.9148636,16.7137918 12,15.6752465 12,14.3600973 C12,13.0180561 12.9419097,12 14.3812324,12 C15.8193791,12 16.7036689,13.0154949 16.7318909,14.3562556 C16.7318909,15.6714048 15.8193791,16.7137918 14.3541863,16.7137918 L14.3541863,16.7137918 Z M32,32 L27.5797272,32 L27.5797272,24.9683698 C27.5797272,23.1281854 26.8882879,21.8732232 25.3678269,21.8732232 C24.2048448,21.8732232 23.5580903,22.7196824 23.2570555,23.537969 C23.1441675,23.8299398 23.1618062,24.2384428 23.1618062,24.6482264 L23.1618062,32 L18.7826905,32 C18.7826905,32 18.8391345,19.5451402 18.7826905,18.4131131 L23.1618062,18.4131131 L23.1618062,20.5452683 C23.420508,19.6130106 24.8198495,18.2824946 27.0529163,18.2824946 C29.8233772,18.2824946 32,20.2379306 32,24.4446152 L32,32 L32,32 Z" id="Shape" fill="#000000"></path>
            </g>
            <g id="ello" transform="translate(580.000000, 40.000000)">
                <rect id="Rectangle" x="0" y="0" width="44" height="44"></rect>
                <use id="Oval" stroke="#000000" mask="url(#mask-12)" stroke-width="4" xlink:href="#path-11"></use>
                <path d="M22,11 C15.923875,11 11,15.92525 11,22 C11,28.07475 15.923875,33 22,33 C28.07475,33 33,28.07475 33,22 C33,15.92525 28.07475,11 22,11 L22,11 Z M28.716875,23.6665 C27.92625,26.73275 25.163875,28.875 22,28.875 C18.83475,28.875 16.07375,26.73275 15.28175,23.6665 C15.14975,23.148125 15.461875,22.616 15.98025,22.482625 C16.061375,22.462 16.1425,22.451 16.225,22.451 C16.666375,22.451 17.054125,22.75075 17.164125,23.181125 C17.73475,25.388 19.723,26.93075 22,26.93075 C24.275625,26.93075 26.26525,25.389375 26.8345,23.181125 C26.945875,22.75075 27.33225,22.451 27.773625,22.451 C27.8575,22.451 27.938625,22.462 28.01975,22.482625 C28.27,22.54725 28.48175,22.70675 28.61375,22.930875 C28.744375,23.155 28.782875,23.41625 28.716875,23.667875 L28.716875,23.6665 L28.716875,23.6665 Z" id="Shape" fill="#000000"></path>
            </g>
            <g id="medium" transform="translate(280.000000, 100.000000)">
                <rect id="Rectangle" x="0" y="0" width="44" height="44"></rect>
                <use id="Oval" stroke="#000000" mask="url(#mask-14)" stroke-width="4" xlink:href="#path-13"></use>
                <path d="M32.9327307,16.4069792 C32.9285264,16.4036157 32.9251629,16.3992012 32.9199075,16.3966786 L32.9123397,16.3928947 L26.2758041,13.0746269 C26.231028,13.0521337 26.1839395,13.0369981 26.1362203,13.0248055 C26.0763086,13.0094597 26.0151356,13 25.9537524,13 C25.6996006,13 25.4467101,13.1276014 25.3096489,13.3500105 L21.4889636,19.5589657 L26.2837923,27.3504309 L32.9531217,16.5129283 C32.9751945,16.4767711 32.9646836,16.4322052 32.9327307,16.4069792 Z M19.384486,18.144629 L19.384486,25.2123187 L25.6665966,28.353374 L19.384486,18.144629 Z M26.6104688,28.8253101 L31.781585,31.4107631 C32.4544881,31.7473197 33,31.511667 33,30.8848013 L33,18.4422956 L26.6104688,28.8253101 Z M18.2938827,16.4170696 L11.8122766,13.1761614 C11.695186,13.1177213 11.5837713,13.0899727 11.4828674,13.0899727 C11.199075,13.0899727 11,13.3096489 11,13.6781585 L11,27.6722724 C11,28.0468783 11.2741223,28.4904351 11.6092075,28.6579777 L17.3180576,31.5122977 C17.4643683,31.585453 17.6037419,31.6201387 17.7296616,31.6201387 C18.084507,31.6201387 18.3334034,31.345596 18.3334034,30.8848013 L18.3334034,16.4807652 C18.3334034,16.4538575 18.3180576,16.4290519 18.2938827,16.4170696 Z" id="Shape" fill="#000000"></path>
            </g>
            <g id="rss" transform="translate(580.000000, 100.000000)">
                <rect id="Rectangle" x="0" y="0" width="44" height="44"></rect>
                <use id="Oval" stroke="#000000" mask="url(#mask-16)" stroke-width="4" xlink:href="#path-15"></use>
                <path d="M13.0078198,12 L13.0078198,15.6261759 C21.4744826,15.6317615 28.3559501,22.5255174 28.36377,31 L32,31 C31.9977658,25.7629351 29.8685325,21.0174036 26.4277987,17.5744356 C22.9870649,14.1325847 18.2437676,12.0022342 13.0078198,12 L13.0078198,12 Z M13.0022342,18.4614299 L13.0022342,22.088723 C15.3694144,22.0898401 17.611477,23.0204022 19.2860419,24.6994356 C20.9639581,26.3740005 21.8889346,28.6171802 21.8934031,30.9932973 L21.8934031,31 L25.5385701,31 C25.5352187,27.5436265 24.1298801,24.4134525 21.8587723,22.1412277 C19.5876646,19.8690028 16.4574906,18.462547 13.0022342,18.4614299 L13.0022342,18.4614299 Z M13.7395343,30.2403575 L13.7395343,30.2392404 L13.7384172,30.2392404 L13.7395343,30.2403575 L13.7395343,30.2403575 Z M17.3053857,26.6867944 C17.7667568,27.1470484 18.0471543,27.7704022 18.0482714,28.4652516 C18.0471543,29.1578669 17.7667568,29.7823377 17.3076199,30.2392404 L17.3053857,30.2403575 C16.8473659,30.6972601 16.2195437,30.9776576 15.52246,30.9776576 C14.8242592,30.9776576 14.1986712,30.696143 13.7395343,30.2392404 C13.2826317,29.7823377 13,29.158984 13,28.4652516 C13,27.7704022 13.2826317,27.1459313 13.7395343,26.6867944 C14.1986712,26.2298918 14.8242592,25.9472601 15.52246,25.9472601 C16.2195437,25.9472601 16.8473659,26.2298918 17.3053857,26.6867944 L17.3053857,26.6867944 Z" id="Shape" fill="#000000"></path>
            </g>
            <g id="phone" transform="translate(100.000000, 160.000000)">
                <rect id="Rectangle" x="0" y="0" width="44" height="44"></rect>
                <use id="Oval" stroke="#000000" mask="url(#mask-18)" stroke-width="4" xlink:href="#path-17"></use>
                <path d="M27.1333333,24.2 C25.6666667,25.6666667 25.6666667,27.1333333 24.2,27.1333333 C22.7333333,27.1333333 21.2666667,25.6666667 19.8,24.2 C18.3333333,22.7333333 16.8666667,21.2666667 16.8666667,19.8 C16.8666667,18.3333333 18.3333333,18.3333333 19.8,16.8666667 C21.2666667,15.4 16.8666667,11 15.4,11 C13.9333333,11 11,15.4 11,15.4 C11,18.3333333 14.014,24.2806667 16.8666667,27.1333333 C19.7178667,29.986 25.6666667,33 28.6,33 C28.6,33 33,30.0666667 33,28.6 C33,27.1333333 28.6,22.7333333 27.1333333,24.2" id="Shape" fill="#000000"></path>
            </g>
            <g id="mail" transform="translate(160.000000, 160.000000)">
                <rect id="Rectangle" x="0" y="0" width="44" height="44"></rect>
                <use id="Oval" stroke="#000000" mask="url(#mask-20)" stroke-width="4" xlink:href="#path-19"></use>
                <path d="M13.1115479,18.9319176 C13.389863,19.1136566 14.228726,19.6535732 15.6282877,20.5512492 C17.0278493,21.4489252 18.0999726,22.1401747 18.8448082,22.6248583 C18.9266301,22.6779992 19.1005205,22.7934864 19.3664795,22.9714595 C19.6324384,23.149572 19.8534932,23.293652 20.0293425,23.4034207 C20.2053425,23.5131893 20.4181096,23.6363478 20.6677945,23.7726171 C20.9174795,23.9088864 21.1528493,24.0112628 21.3737534,24.0791882 C21.5948082,24.1475321 21.7994384,24.1814251 21.9876438,24.1814251 L22,24.1814251 L22.0123562,24.1814251 C22.2005616,24.1814251 22.4051918,24.1475321 22.6262466,24.0791882 C22.8471507,24.0112628 23.0826712,23.908747 23.3322055,23.7726171 C23.5817397,23.6362083 23.7945068,23.5131893 23.9705068,23.4034207 C24.1465068,23.293652 24.367411,23.149572 24.6333699,22.9714595 C24.8993288,22.7933469 25.0733699,22.6779992 25.1551918,22.6248583 C25.9080137,22.1400352 27.8233699,20.9090085 30.9006575,18.9316387 C31.4981233,18.545426 31.9971918,18.0794323 32.3983151,17.5339366 C32.799589,16.9887198 33,16.4167233 33,15.8182262 C33,15.3182 32.8054658,14.8901442 32.4166986,14.5340586 C32.0279315,14.177973 31.5674384,14 31.0356712,14 L12.9641781,14 C12.3340137,14 11.8491096,14.196942 11.5094658,14.5908259 C11.1698219,14.9848493 11,15.4773437 11,16.0681695 C11,16.5454609 11.2251233,17.0626427 11.6752192,17.6194362 C12.1253151,18.1762296 12.6041918,18.6137699 13.1115479,18.9319176 Z M31.7722192,20.1477413 C29.0879178,21.8294193 27.0497534,23.1363216 25.6586301,24.0681695 C25.1921096,24.3863173 24.813589,24.6345869 24.5229178,24.8124205 C24.2323973,24.990533 23.8457397,25.1722719 23.3627945,25.3579162 C22.88,25.5435605 22.4299041,25.6363129 22.0125068,25.6363129 L22,25.6363129 L21.9876438,25.6363129 C21.5702466,25.6363129 21.12,25.5435605 20.6372055,25.3579162 C20.154411,25.1722719 19.7676027,24.990533 19.4770822,24.8124205 C19.1865616,24.6345869 18.8080411,24.3863173 18.3415205,24.0681695 C17.2365479,23.3182 15.2027534,22.0112977 12.2399863,20.1477413 C11.7734658,19.8599997 11.360137,19.5302753 11,19.1591262 L11,28.1816343 C11,28.6818 11.192274,29.1097163 11.5769726,29.4658019 C11.9616712,29.822027 12.4241233,30 12.9643288,30 L31.0358219,30 C31.5758767,30 32.0383288,29.822027 32.4230274,29.4658019 C32.8078767,29.1095769 33,28.6818 33,28.1816343 L33,19.1591262 C32.648,19.522604 32.2388904,19.8523284 31.7722192,20.1477413 Z" id="Shape" fill="#000000"></path>
            </g>
            <g id="send" transform="translate(220.000000, 160.000000)">
                <rect id="Rectangle" x="0" y="0" width="44" height="44"></rect>
                <use id="Oval" stroke="#000000" mask="url(#mask-22)" stroke-width="4" xlink:href="#path-21"></use>
                <path d="M30.9886676,11.9209704 L27.8458705,30.7777533 C27.8049484,31.0151012 27.6739999,31.1992476 27.4530208,31.3301981 C27.3384391,31.3956734 27.2115827,31.4284106 27.0724477,31.4284106 C26.9824192,31.4284106 26.8842078,31.4079498 26.7778105,31.3670278 L21.2165327,29.0958658 L18.2456073,32.7174485 C18.0982879,32.9056899 17.8977729,32.9998091 17.6440563,32.9998091 C17.537659,32.9998091 17.4476318,32.9834406 17.3739721,32.9507029 C17.2184684,32.8934121 17.093658,32.7972467 16.9995373,32.662204 C16.9054166,32.5271612 16.858357,32.377798 16.858357,32.2141098 L16.858357,27.9295934 L27.4652974,14.9287255 L14.3416639,26.2845355 L9.49242614,24.2957342 C9.18960303,24.1811525 9.02591731,23.9560846 9.00136409,23.6205239 C8.98499527,23.2931475 9.11594384,23.0517111 9.39421373,22.8962073 L29.8223953,11.110718 C29.9451614,11.0370583 30.07611,11.000229 30.2152449,11.000229 C30.3789331,11.000229 30.5262502,11.0452426 30.6572007,11.1352711 C30.9272862,11.3316969 31.0377741,11.593594 30.9886676,11.9209704 Z" id="Shape" fill="#000000"></path>
            </g>
            <g id="pinterest" transform="translate(40.000000, 220.000000)">
                <rect id="Rectangle" x="0" y="0" width="44" height="44"></rect>
                <use id="Oval" stroke="#000000" mask="url(#mask-24)" stroke-width="4" xlink:href="#path-23"></use>
                <path d="M10,22 C10,26.9134525 12.9562559,31.1354657 17.1853246,32.991063 C17.150047,32.1528692 17.178269,31.1467545 17.3927563,30.2351834 C17.6241769,29.261524 18.9365005,23.696143 18.9365005,23.696143 C18.9365005,23.696143 18.5526811,22.9299153 18.5526811,21.7982126 C18.5526811,20.0188147 19.5841957,18.690969 20.8668862,18.690969 C21.9590781,18.690969 22.4868297,19.5108184 22.4868297,20.4929445 C22.4868297,21.5907808 21.7869238,23.2318909 21.4270931,24.7516463 C21.1265287,26.0244591 22.0649106,27.0616181 23.3207902,27.0616181 C25.5940734,27.0616181 27.1251176,24.1434619 27.1251176,20.682032 C27.1251176,18.0531515 25.3541863,16.084666 22.1326435,16.084666 C18.4920038,16.084666 16.224365,18.7996237 16.224365,21.8306679 C16.224365,22.8762935 16.533396,23.6142992 17.0145814,24.1843838 C17.2375353,24.4468485 17.2685795,24.5526811 17.1881468,24.8546566 C17.1317027,25.0733772 16.9990593,25.6067733 16.9440263,25.8170273 C16.8635936,26.1204139 16.6180621,26.2290687 16.3428975,26.1175917 C14.6665099,25.4317968 13.8861712,23.5959548 13.8861712,21.5329257 C13.8861712,18.1237065 16.7591722,14.0357479 22.4614299,14.0357479 C27.0432738,14.0357479 30.0587959,17.3518344 30.0587959,20.9106303 C30.0587959,25.6180621 27.4412041,29.1345249 23.5832549,29.1345249 C22.2878645,29.1345249 21.0700847,28.434619 20.6523989,27.6387582 C20.6523989,27.6387582 19.9553151,30.4031044 19.8071496,30.9379116 C19.5545626,31.8621825 19.0550329,32.7864534 18.6006585,33.5075259 C19.6787394,33.8264346 20.8189087,34 22.0014111,34 C28.6279398,34 34,28.6265287 34,22 C34,15.3720602 28.6279398,10 22.0014111,10 C15.3734713,10 10,15.3720602 10,22 Z" id="Shape" fill="#000000"></path>
            </g>
            <g id="behance" transform="translate(160.000000, 220.000000)">
                <rect id="Rectangle" x="0" y="0" width="44" height="44"></rect>
                <use id="Oval" stroke="#000000" mask="url(#mask-26)" stroke-width="4" xlink:href="#path-25"></use>
                <path d="M21.6360265,16.4555815 C22.0312615,17.0375525 22.2301218,17.7306866 22.2301218,18.5402149 C22.2301218,19.3732835 22.0312615,20.044185 21.631055,20.5503036 C21.4048514,20.8340962 21.0754889,21.0943484 20.6392391,21.3284447 C21.3016926,21.5834657 21.8000863,21.9849603 22.1393918,22.5342363 C22.4762115,23.0822046 22.6439999,23.7504904 22.6439999,24.5351705 C22.6439999,25.3433909 22.4525968,26.0705278 22.066062,26.7113498 C21.8212152,27.1363849 21.5142246,27.4960299 21.1475758,27.7863615 C20.7336977,28.1198505 20.2464899,28.3474078 19.6822237,28.4716488 C19.1179574,28.5958898 18.5077048,28.6560486 17.847737,28.6560486 L12,28.6560486 L12,15 L18.2715581,15 C19.8549836,15.026156 20.9748159,15.510042 21.6360265,16.4555815 L21.6360265,16.4555815 Z M14.5876702,17.3723494 L14.5876702,20.3855208 L17.7433353,20.3855208 C18.3051158,20.3855208 18.7637375,20.2717422 19.1167146,20.0454928 C19.465963,19.8205511 19.6436945,19.4203643 19.6436945,18.8475479 C19.6436945,18.2106492 19.4112764,17.7908454 18.9464404,17.5855208 C18.5449911,17.4442784 18.0341686,17.3723494 17.41273,17.3723494 L14.5876702,17.3723494 L14.5876702,17.3723494 Z M14.5876702,22.6440915 L14.5876702,26.285007 L17.7383638,26.285007 C18.3013872,26.285007 18.7401228,26.2052312 19.0533278,26.0456796 C19.6225656,25.7475012 19.9059416,25.1799159 19.9059416,24.3416161 C19.9059416,23.628865 19.6325086,23.1423634 19.0806711,22.8755722 C18.7711947,22.7277908 18.3386735,22.6493227 17.7831074,22.6440915 L14.5876702,22.6440915 L14.5876702,22.6440915 Z M30.4902834,18.7638487 C31.161437,19.0790285 31.7132745,19.5773003 32.1470386,20.2573564 C32.5435164,20.8576366 32.7983062,21.5533863 32.9138938,22.3446053 C32.9810092,22.8088744 33.0095953,23.4771602 32.9971666,24.3494629 L26.0059826,24.3494629 C26.0469975,25.3630079 26.3788457,26.0731434 27.0102273,26.4798692 C27.3942764,26.7335824 27.8553838,26.8591312 28.3947925,26.8591312 C28.9640302,26.8591312 29.4301092,26.7061186 29.7868149,26.3974778 C29.9831895,26.2300794 30.1547065,25.9985988 30.3038518,25.7017282 L32.8654216,25.7017282 C32.7983062,26.3007006 32.4875869,26.9088277 31.9357495,27.5287249 C31.0769214,28.509575 29.8725734,29 28.3264342,29 C27.0487565,29 25.9202241,28.5867352 24.9470513,27.7575899 C23.9676641,26.9297525 23.4816991,25.5814106 23.4816991,23.7164876 C23.4816991,21.9653433 23.9216776,20.6248482 24.8016346,19.6897711 C25.6840774,18.7586175 26.8275244,18.290425 28.2332185,18.290425 C29.0684319,18.290425 29.8216155,18.447361 30.4902834,18.7638487 L30.4902834,18.7638487 Z M26.7367944,21.044652 C26.3825744,21.4291453 26.1588565,21.9509575 26.0681265,22.6074731 L30.3920961,22.6074731 C30.3473525,21.9064923 30.1223917,21.3755255 29.724671,21.011957 C29.3219788,20.6496964 28.8260709,20.4679122 28.2344613,20.4679122 C27.5918938,20.4679122 27.0910144,20.6601588 26.7367944,21.044652 L26.7367944,21.044652 Z M25.4193446,17.3370388 L30.979977,17.3370388 L30.979977,15.6382064 L25.4193446,15.6382064 L25.4193446,17.3370388 Z" id="Shape" fill="#000000"></path>
            </g>
            <g id="dribbble" transform="translate(220.000000, 220.000000)">
                <rect id="Rectangle" x="0" y="0" width="44" height="44"></rect>
                <use id="Oval" stroke="#000000" mask="url(#mask-28)" stroke-width="4" xlink:href="#path-27"></use>
                <path d="M32.7762098,19.7862896 C32.6326219,19.0787818 32.4152996,18.3829149 32.1345916,17.7180904 C31.8603516,17.0662002 31.5175516,16.4375919 31.120421,15.8503733 C30.7271712,15.2683285 30.27571,14.719913 29.7789734,14.2232348 C29.2809431,13.7252631 28.7337567,13.273855 28.1503499,12.8806514 C27.5630623,12.4822741 26.93438,12.1421012 26.2824131,11.8653066 C25.6175104,11.5859251 24.9215617,11.3673349 24.2152643,11.2250573 C23.4908567,11.0763125 22.7457517,11 22.0006468,11 C21.2542483,11 20.5091433,11.0763125 19.7847357,11.2250573 C19.0784383,11.3673349 18.3824896,11.5859251 17.7175869,11.8653066 C17.06562,12.1421012 16.4369377,12.4822741 15.8483566,12.8806514 C15.2662433,13.273855 14.7190569,13.7252631 14.2210266,14.2232348 C13.7229964,14.719913 13.2728288,15.2683285 12.879579,15.8503733 C12.4811548,16.4375919 12.1396484,17.0662002 11.8641148,17.7180904 C11.5834068,18.3829149 11.3673781,19.0787818 11.2224966,19.7862896 C11.0750279,20.5080252 11,21.2543359 11,21.9993533 C11,22.7456641 11.0750279,23.4919748 11.2224966,24.2162973 C11.3673781,24.9212182 11.5834068,25.6183785 11.8641148,26.2819096 C12.1396484,26.9337998 12.4811548,27.5637016 12.879579,28.1522135 C13.2728288,28.7342583 13.7229964,29.280087 14.2210266,29.7780587 C14.7190569,30.2760303 15.2662433,30.726145 15.8483566,31.1193486 C16.4369377,31.5177259 17.06562,31.8591922 17.7175869,32.1346934 C18.3824896,32.4153683 19.0784383,32.6300782 19.7847357,32.7749427 C20.5091433,32.9249809 21.2542483,33 22.0006468,33 C22.7457517,33 23.4908567,32.9249809 24.2152643,32.7749427 C24.9215617,32.6300782 25.6175104,32.4153683 26.2824131,32.1346934 C26.93438,31.8591922 27.5630623,31.5177259 28.1503499,31.1193486 C28.7337567,30.726145 29.2809431,30.2760303 29.7789734,29.7780587 C30.27571,29.280087 30.7271712,28.7342583 31.120421,28.1522135 C31.5175516,27.5637016 31.8603516,26.9337998 32.1345916,26.2819096 C32.4152996,25.6183785 32.6326219,24.9212182 32.7762098,24.2162973 C32.9249721,23.4919748 33,22.7456641 33,21.9993533 C33,21.2543359 32.9249721,20.5080252 32.7762098,19.7862896 L32.7762098,19.7862896 Z M31.3920739,21.9062261 C31.2562474,21.8764772 28.0766155,21.1922512 24.849121,21.5983891 C24.7818545,21.4380034 24.7145881,21.2763243 24.6460281,21.1146452 C24.4494032,20.6541831 24.2398424,20.1988947 24.0212266,19.7513669 C27.7312283,18.236757 29.2369613,16.058616 29.2550714,16.0327474 C30.571941,17.6340173 31.3700829,19.6776412 31.3920739,21.9062261 L31.3920739,21.9062261 Z M28.2046804,14.950144 C28.1813959,14.9863602 26.843829,17.023517 23.296819,18.3518725 C21.69148,15.4015521 19.92703,13.0578517 19.7860293,12.8715974 C20.4962074,12.6995708 21.2374316,12.6064436 22.0006468,12.6064436 C24.378256,12.6064436 26.5488916,13.4937386 28.2046804,14.950144 L28.2046804,14.950144 Z M19.7498089,12.879358 C19.7498089,12.8806514 19.7485153,12.8806514 19.7485153,12.8806514 C19.7485153,12.8806514 19.7368731,12.8832383 19.7200564,12.8871186 C19.7291115,12.8845317 19.7394602,12.8832383 19.7498089,12.879358 L19.7498089,12.879358 Z M17.9918269,13.5040861 C18.1160111,13.6722323 19.8545893,16.0262802 21.4806256,18.9171027 C16.9698947,20.116115 13.054213,20.068258 12.8058447,20.0643777 C13.4164168,17.1541537 15.3710237,14.7419013 17.9918269,13.5040861 L17.9918269,13.5040861 Z M12.605339,21.9993533 C12.605339,21.899759 12.6105133,21.8014581 12.6131005,21.7031572 C12.7786794,21.7070375 17.4213559,21.8118055 22.2580702,20.3644541 C22.5271359,20.8908813 22.7845593,21.4263625 23.0199918,21.9605503 C22.8958076,21.995473 22.772917,22.0329825 22.6500265,22.073079 C17.5804669,23.7118584 15.0088199,28.2725028 15.0088199,28.2725028 C15.0088199,28.2725028 15.0127007,28.2763831 15.0127007,28.2776765 C13.5160228,26.6130284 12.605339,24.4128991 12.605339,21.9993533 L12.605339,21.9993533 Z M22.0006468,31.3935564 C19.7265244,31.3935564 17.6412654,30.5851608 16.015229,29.241284 C16.1394132,29.3408784 16.2260834,29.40555 16.2260834,29.40555 C16.2260834,29.40555 18.0267537,25.4786878 23.5982243,23.537245 C23.6189216,23.5294844 23.639619,23.5230172 23.6616099,23.5165501 C24.9836538,26.9519078 25.5282531,29.8285026 25.6679603,30.6498324 C24.5412477,31.1284026 23.3006997,31.3935564 22.0006468,31.3935564 L22.0006468,31.3935564 Z M27.2500147,29.790993 C27.1542894,29.2244694 26.653672,26.4668705 25.4208855,23.0819566 C28.4543423,22.5969193 31.0816135,23.4285966 31.2756512,23.4919748 C30.8578232,26.1085896 29.3585582,28.3669234 27.2500147,29.790993 L27.2500147,29.790993 Z" id="Shape" fill="#000000"></path>
            </g>
            <g id="flikr" transform="translate(400.000000, 220.000000)">
                <rect id="Rectangle" x="0" y="0" width="44" height="44"></rect>
                <use id="Oval" stroke="#000000" mask="url(#mask-30)" stroke-width="4" xlink:href="#path-29"></use>
                <path d="M33,21.9993327 C33,24.7605765 30.832079,27 28.155809,27 C25.474365,27 23.3077375,24.7605765 23.3077375,21.9993327 C23.3077375,19.2394235 25.474365,17 28.155809,17 C30.832079,17 33,19.2394235 33,21.9993327 M20.690969,21.9993327 C20.690969,24.7605765 18.523048,27 15.8428975,27 C13.167921,27 11,24.7605765 11,21.9993327 C11,19.2394235 13.167921,17 15.8428975,17 C18.523048,17 20.690969,19.2394235 20.690969,21.9993327" id="Shape" fill="#000000"></path>
            </g>
            <g id="stackoverflow" transform="translate(100.000000, 280.000000)">
                <rect id="Rectangle" x="0" y="0" width="44" height="44"></rect>
                <use id="Oval" stroke="#000000" mask="url(#mask-32)" stroke-width="4" xlink:href="#path-31"></use>
                <path d="M25.4425714,26.5268493 L15.428342,25.583726 L15.2291294,27.7602466 L25.2576756,28.7031918 L25.4425714,26.5268493 Z M25.2007577,29.3271918 L15.1437526,29.3417945 L15.1437526,31.5322055 L25.2007577,31.518137 L25.2007577,29.3271918 Z M27.377081,21.1585616 L18.7142146,15.9352329 L17.6189819,17.8213014 L26.2816737,23.0446301 L27.377081,21.1585616 Z M26.1110946,23.6540274 L16.3955967,20.9988219 L15.8407347,23.1171096 L25.5564072,25.7724932 L26.1110946,23.6540274 Z M26.9215633,33.2734932 L13.7211548,33.2734932 L13.7211548,24.3070548 L12,24.3070548 L12,34.9853973 L12.0143168,34.9853973 L12.5122609,35 L28.6146083,35 L28.6146083,34.9853973 L28.6289251,34.4775068 L28.6289251,24.3070548 L26.9215633,24.3070548 L26.9215633,33.2734932 Z M30.2790198,9 L28.1592653,9.37717808 L29.8807693,19.4899315 L32,19.1127534 L30.2790198,9 Z M22.0570052,12.3805342 L27.7327304,20.853863 L29.4968355,19.6206438 L23.8350778,11.1328904 L22.0570052,12.3805342 Z" id="Shape" fill="#000000"></path>
            </g>
            <g id="github" transform="translate(160.000000, 280.000000)">
                <rect id="Rectangle" x="0" y="0" width="44" height="44"></rect>
                <use id="Oval" stroke="#000000" mask="url(#mask-34)" stroke-width="4" xlink:href="#path-33"></use>
                <path d="M10,22.3044338 C10,27.7398363 13.4380429,32.3519218 18.2065134,33.9789169 C18.8069002,34.0922174 19.0256914,33.7122831 19.0256914,33.3859777 C19.0256914,33.0936624 19.015378,32.3201977 19.0094846,31.2936952 C15.671629,32.0369464 14.9673716,29.6440399 14.9673716,29.6440399 C14.4214985,28.2224964 13.634734,27.8440727 13.634734,27.8440727 C12.5451978,27.0804274 13.7172412,27.0962895 13.7172412,27.0962895 C14.921698,27.1831532 15.555235,28.3644997 15.555235,28.3644997 C16.6263544,30.2445326 18.364161,29.7014455 19.0477915,29.3864702 C19.1568188,28.5911007 19.4669572,28.0495243 19.8095092,27.741347 C17.1449707,27.4309036 14.3434114,26.3756983 14.3434114,21.660887 C14.3434114,20.3171431 14.8111974,19.2188837 15.5788084,18.3585552 C15.4557844,18.0473565 15.0439854,16.7965191 15.6966758,15.1030543 C15.6966758,15.1030543 16.7044415,14.7714615 18.9962246,16.3637112 C19.9538967,16.0910346 20.9800792,15.9543187 22.0003683,15.9497867 C23.0199208,15.9543187 24.0461033,16.0910346 25.0052488,16.3637112 C27.2955585,14.7714615 28.3018509,15.1030543 28.3018509,15.1030543 C28.9560146,16.7965191 28.5442156,18.0473565 28.4211916,18.3585552 C29.1902759,19.2188837 29.6543786,20.3171431 29.6543786,21.660887 C29.6543786,26.3870284 26.8491359,27.4271269 24.1757574,27.7322829 C24.6067098,28.1122172 24.9897787,28.8630219 24.9897787,30.0103782 C24.9897787,31.6555014 24.9757819,32.9826279 24.9757819,33.3859777 C24.9757819,33.7153044 25.1916265,34.0975048 25.8008533,33.9774062 C30.5649038,32.3473898 34,27.7390809 34,22.3044338 C34,15.5086701 28.6267227,10 21.998895,10 C15.3732773,10 10,15.5086701 10,22.3044338 Z" id="Shape" fill="#000000"></path>
            </g>
        </g>
    </g>
</svg>